<?xml version="1.0" encoding="UTF-8" standalone="no"?>
<svg
   xmlns:dc="http://purl.org/dc/elements/1.1/"
   xmlns:cc="http://creativecommons.org/ns#"
   xmlns:rdf="http://www.w3.org/1999/02/22-rdf-syntax-ns#"
   xmlns:svg="http://www.w3.org/2000/svg"
   xmlns="http://www.w3.org/2000/svg"
   xmlns:sodipodi="http://sodipodi.sourceforge.net/DTD/sodipodi-0.dtd"
   xmlns:inkscape="http://www.inkscape.org/namespaces/inkscape"
   width="200"
   height="200"
   viewBox="0 0 200 200"
   version="1.1"
   id="svg8"
   sodipodi:docname="discord.svg"
   inkscape:version="0.92.2 (5c3e80d, 2017-08-06)">
  <metadata
     id="metadata14">
    <rdf:RDF>
      <cc:Work
         rdf:about="">
        <dc:format>image/svg+xml</dc:format>
        <dc:type
           rdf:resource="http://purl.org/dc/dcmitype/StillImage" />
        <dc:title></dc:title>
      </cc:Work>
    </rdf:RDF>
  </metadata>
  <defs
     id="defs12" />
  <sodipodi:namedview
     pagecolor="#ffffff"
     bordercolor="#666666"
     borderopacity="1"
     objecttolerance="10"
     gridtolerance="10"
     guidetolerance="10"
     inkscape:pageopacity="0"
     inkscape:pageshadow="2"
     inkscape:window-width="1258"
     inkscape:window-height="666"
     id="namedview10"
     showgrid="false"
     inkscape:zoom="1.5790922"
     inkscape:cx="113.52446"
     inkscape:cy="81.111282"
     inkscape:window-x="384"
     inkscape:window-y="668"
     inkscape:window-maximized="0"
     inkscape:current-layer="g6" />
  <g
     id="g6"
     style="fill:#7289da">
    <path
       style="stroke-width:1.71077132"
       d="M 72.664062 28.873047 C 72.664062 28.873047 49.356396 28.359865 24.677734 46.632812 C 24.677734 46.632812 0 90.864507 0 145.3418 C -4.7369516e-015 145.3418 14.396593 169.93348 52.271484 171.12891 C 52.271484 171.12891 58.612518 163.61447 63.753906 157.125 C 41.988698 150.63555 33.761719 137.14453 33.761719 137.14453 C 33.761719 137.14453 35.475715 138.33912 38.560547 140.04688 C 38.731928 140.04688 38.903335 140.21789 39.246094 140.38867 C 39.760233 140.73022 40.274926 140.90064 40.789062 141.24219 C 45.073553 143.63304 49.357097 145.51185 53.298828 147.04883 C 60.325391 149.95201 68.72355 152.51406 78.492188 154.39258 C 91.345656 156.78343 106.42646 157.63645 122.87891 154.5625 C 130.93374 153.02552 139.15954 150.80699 147.72852 147.2207 C 153.72681 145.00063 160.41093 141.75546 167.4375 137.14453 C 167.4375 137.14453 158.8687 150.97624 136.41797 157.29492 C 141.55936 163.61361 147.72852 170.95703 147.72852 170.95703 C 185.6034 169.7616 200 145.17102 200 145.3418 C 200 90.864507 175.32227 46.632812 175.32227 46.632812 C 150.81498 28.359864 127.33594 28.873047 127.33594 28.873047 L 124.93555 31.605469 C 154.07007 40.315005 167.60938 53.123047 167.60938 53.123047 C 149.78588 43.559635 132.30451 38.776964 116.02344 36.898438 C 103.6841 35.532235 91.860406 35.874033 81.40625 37.240234 C 80.377973 37.240234 79.520465 37.411256 78.492188 37.582031 C 72.493901 38.265132 57.925509 40.315362 39.587891 48.341797 C 33.246846 51.0742 29.476562 53.123047 29.476562 53.123047 C 29.476562 53.123047 43.530578 39.631412 74.378906 30.921875 L 72.664062 28.873047 z M 68.037109 88.814453 C 77.805746 88.814453 85.688958 97.182327 85.517578 107.59961 C 85.517578 118.0169 77.805746 126.38477 68.037109 126.38477 C 58.439851 126.38477 50.556641 118.0169 50.556641 107.59961 C 50.556641 97.182327 58.268473 88.814453 68.037109 88.814453 z M 130.5918 88.814453 C 140.18907 88.814453 148.07227 97.182327 148.07227 107.59961 C 148.07227 118.0169 140.36044 126.38477 130.5918 126.38477 C 120.99455 126.38477 113.11133 118.0169 113.11133 107.59961 C 113.11133 97.182327 120.82317 88.814453 130.5918 88.814453 z "
       id="path4" />
  </g>
</svg>
